# xmcd CD database file
#
# Track frame offsets:
#	150
#	19371
#	30961
#	42476
#	56016
#	72893
#	92358
#	105994
#	122459
#	134424
#	153551
#	173579
#	188469
#	202196
#	217311
#	229238
#	242328
#	255230
#	266332
#	280997
#	295174
#	317076
#
# Disc length: 4541 seconds
#
# Revision: 0
# Processed by: cddbd v1.5.1PL0 Copyright (c) Steve Scherf et al.
# Submitted via: CDex 1.51
#
DISCID=3211bb16
DTITLE=Sie Vulture - VV May 2005 Swap
DYEAR=2005
DGENRE=Jazz
TTITLE0=Willie Dickson and the Playboys - Licking Stick
TTITLE1=Owen Gray - Groove me
TTITLE2=Jackie Mittoo - Groovy Spirit
TTITLE3=John O'hara - Funky Nassau
TTITLE4=Dave Anthony - Chain Of Fools
TTITLE5=The Medium Wave Band - Theme From 2001
TTITLE6=The Messengers - Gang Bang
TTITLE7=Big Band Katowice - Modrox
TTITLE8=Proud Mary - Follow Me
TTITLE9=Zoo - If You Lose Your Woman
TTITLE10=US Navy Band - Hold On
TTITLE11=Bwana - La Jarumba
TTITLE12=Doug E Fresh and the Get Fresh Crew - Nothing
TTITLE13=Just Ice - Cold Gettin' Dumb (Part Two Radio Edit)
TTITLE14=Cold Crush Brothers - Feel The Horns
TTITLE15=The Interpretations - Jason Pew Mosso
TTITLE16=Phil Flower - If It Feels Good Do It
TTITLE17=Henry Ford - I Love You I Need You
TTITLE18=Mugo - Organise
TTITLE19=Ray J and Norma Jean - Raising Hell
TTITLE20=Lalomie Washburn - Double Bumping
TTITLE21=Kay Robinson - The Lord Will Make A Way
EXTD=YEAR: 2005
EXTT0=
EXTT1=
EXTT2=
EXTT3=
EXTT4=
EXTT5=
EXTT6=
EXTT7=
EXTT8=
EXTT9=
EXTT10=
EXTT11=
EXTT12=
EXTT13=
EXTT14=
EXTT15=
EXTT16=
EXTT17=
EXTT18=
EXTT19=
EXTT20=
EXTT21=
PLAYORDER=
